<?xml version="1.0" encoding="utf-8"?>
<!-- Generator: Adobe Illustrator 23.0.1, SVG Export Plug-In . SVG Version: 6.00 Build 0)  -->
<svg version="1.1" id="Layer_1" xmlns="http://www.w3.org/2000/svg" xmlns:xlink="http://www.w3.org/1999/xlink" x="0px" y="0px"
	 viewBox="0 0 500 500" style="enable-background:new 0 0 500 500;" xml:space="preserve">
<style type="text/css">
	.st0{fill:#FFFFFF;stroke:#000000;stroke-miterlimit:10;}
	.st1{font-family:'HiraginoSans-W0-83pv-RKSJ-H';}
	.st2{font-size:100px;}
	.st3{font-size:22px;}
	.st4{fill:none;stroke:#000000;stroke-width:2;stroke-miterlimit:10;}
</style>
<circle class="st0" cx="252.32" cy="254.5" r="221.07"/>
<text transform="matrix(1 0 0 1 123.9795 309.5703)" class="st1 st2">TMPJ</text>
<text transform="matrix(1 0 0 1 154.5693 343.5698)" class="st1 st3">u.s. history &amp; culture</text>
<path class="st4" d="M95,199c-3.46,9.56-27.83,80.29,11,135c37.18,52.38,105.42,52.76,149.67,53c43.91,0.23,117.65,0.63,155.33-55
	c36.61-54.05,12.92-122.23,9-133c-56.23,0.3-112.45,0.44-168.67,0.43C199.22,199.42,147.11,199.28,95,199z"/>
<path class="st4" d="M95,186c-0.33-0.18-0.79-0.48-1-1c-1.9-4.57,18.34-17.01,25.09-21.16c11.29-6.94,37.76-20.37,97.91-32.84
	c-8.03-3.67-16.29-8.07-15.62-10.66c0.2-0.78,1.15-1.16,1.62-1.34c14.98-5.63,83.52-7.06,93-2c0.3,0.16,0.78,0.45,1,1
	c1.14,2.82-6.2,8.46-13,13c17.65,0.19,40.6,2.16,66.48,9.06c31.87,8.49,56.61,21.37,73.52,31.94c0.18,0.17,0.71,0.71,0.76,1.51
	c0.07,1.01-0.63,2.03-1.76,2.49c-12.46,0.59-31.06,1.42-53.63,2.23c-53.98,1.94-93.02,2.92-113.37,2.77
	C216.18,180.71,161.21,181.44,95,186z"/>
<path class="st4" d="M420,199c13.1-3.03,25.7,2.75,30,12c5.49,11.82-2.22,30.13-20,35"/>
<path class="st4" d="M95,199c-13.42-3.93-26.2,0.32-31,9c-3.83,6.94-1.42,14.64-1,16c4.4,14.05,20.58,17.48,21.28,17.61"/>
</svg>
